<?xml version="1.0" encoding="UTF-8"?>
<svg id="_레이어_1" data-name="레이어_1" xmlns="http://www.w3.org/2000/svg" xmlns:xlink="http://www.w3.org/1999/xlink" version="1.1" viewBox="0 0 99 66">
  <!-- Generator: Adobe Illustrator 29.7.1, SVG Export Plug-In . SVG Version: 2.1.1 Build 8)  -->
  <defs>
    <style>
      .st0 {
        fill: none;
      }

      .st1 {
        mask: url(#mask);
      }

      .st2 {
        mask: url(#mask-2);
      }

      .st3 {
        mask: url(#mask-3);
      }

      .st4 {
        mask: url(#mask-1);
      }

      .st5 {
        fill: #3e3a39;
      }

      .st6 {
        fill: #fff;
      }

      .st7 {
        clip-path: url(#clippath);
      }
    </style>
    <clipPath id="clippath">
      <rect class="st0" x="15" y="16.5" width="74" height="33"/>
    </clipPath>
    <mask id="mask" x="-385.9" y="16.5" width="474.9" height="692.4" maskUnits="userSpaceOnUse">
      <g id="mask0_1043_5710">
        <path class="st6" d="M-385.9,708.9H89V16.5h-474.9v692.4Z"/>
      </g>
    </mask>
    <mask id="mask-1" x="-385.9" y="16.5" width="474.9" height="692.4" maskUnits="userSpaceOnUse">
      <g id="mask1_1043_5710">
        <path class="st6" d="M-385.9,708.9H89V16.5h-474.9v692.4Z"/>
      </g>
    </mask>
    <mask id="mask-2" x="-385.9" y="16.5" width="474.9" height="692.4" maskUnits="userSpaceOnUse">
      <g id="mask2_1043_5710">
        <path class="st6" d="M-385.9,708.9H89V16.5h-474.9v692.4Z"/>
      </g>
    </mask>
    <mask id="mask-3" x="-385.9" y="16.5" width="474.9" height="692.4" maskUnits="userSpaceOnUse">
      <g id="mask3_1043_5710">
        <path class="st6" d="M-385.9,708.9H89V16.5h-474.9v692.4Z"/>
      </g>
    </mask>
  </defs>
  <g class="st7">
    <g>
      <g class="st1">
        <path class="st5" d="M40.3,49.5h23.3s0-3.4,0-3.4h-23.3v3.4Z"/>
      </g>
      <g class="st4">
        <path class="st5" d="M70,16.9v24.3h19v-3.8h-14.9v-6.5h13.4v-3.8h-13.4v-6.3h14.3v-3.8h-18.4Z"/>
      </g>
      <g class="st2">
        <path class="st5" d="M31.5,28.4c1.5-1.2,2.3-2.9,2.3-5,0-3.9-3.3-6.6-8.2-6.6h-10.7v24.3h11.3c5.4,0,8.8-2.7,8.8-7s-1.7-4.9-3.5-5.7ZM19.1,20.7h6.5c2.7,0,4.4,1.1,4.4,3,0,2.7-2,3.3-5,3.3h-5.8v-6.3ZM26,37.4h-7v-6.5h6.7c3.5,0,5.2,1,5.2,3.2s-1.9,3.3-4.9,3.3Z"/>
      </g>
      <g class="st3">
        <path class="st5" d="M52,16.5c-7,0-12.6,5.6-12.6,12.6s5.7,12.6,12.6,12.6,12.6-5.6,12.6-12.6-5.7-12.6-12.6-12.6ZM52,38c-5,0-9-4-9-9s4-9,9-9,9,4,9,9-4,9-9,9Z"/>
      </g>
    </g>
  </g>
</svg>