<?xml version="1.0" encoding="UTF-8"?>
<svg id="_레이어_1" data-name="레이어_1" xmlns="http://www.w3.org/2000/svg" version="1.1" viewBox="0 0 117.5 66">
  <!-- Generator: Adobe Illustrator 29.7.1, SVG Export Plug-In . SVG Version: 2.1.1 Build 8)  -->
  <defs>
    <style>
      .st0 {
        fill: #e6007e;
        fill-rule: evenodd;
      }
    </style>
  </defs>
  <path class="st0" d="M83.8,26.6c2.6-3.3,8.5-4.3,12.3-2,1.1.8,2.2,1.7,3.1,2.7l3.8-4.1c-.9-1.4-2.7-3-4.9-4.3-4.5-2.6-10.7-2.7-15.1.3-1,.7-1.9,1.5-2.7,2.5-4,4.7-4.1,12.2.2,16.8,1.2,1.3,2.7,2.3,4.3,3,1.6.7,3.4,1,5.2,1,1.1,0,2.2-.3,3.3-.7-2.2.4-4.5.2-6.5-.6-5.7-2.6-6.8-10-3-14.7ZM63.8,33.9l13.4,13.5h-9.9l-10.9-11.2v11.2h-7.9v-28h7.9v12.2l10.8-12.2h9.4l-12.9,14.5h0ZM76.7,23.7c-2.3,5.7-1.4,11.4,3.6,15.9,4.6,4.2,12.1,4.8,17.1,1,1.1-.8,2.1-2,3.2-3.1.4.2,3.6,3.4,3.6,3.6-1.4,1.9-3,3.5-4.9,4.9-5,3.5-11.3,3.8-16.8,1-8-4.1-11.9-16-5.7-23.4h0ZM25.9,36.8h10.2v10.7h7.9v-28h-7.9v10.5h-10.2v-10.5h-7.9v28h7.9v-10.7Z"/>
</svg>