<?xml version="1.0" encoding="UTF-8"?>
<svg id="_레이어_1" data-name="레이어_1" xmlns="http://www.w3.org/2000/svg" xmlns:xlink="http://www.w3.org/1999/xlink" version="1.1" viewBox="0 0 220 66">
  <!-- Generator: Adobe Illustrator 29.7.1, SVG Export Plug-In . SVG Version: 2.1.1 Build 8)  -->
  <defs>
    <style>
      .st0 {
        fill: none;
      }

      .st1 {
        fill: #fff;
      }

      .st2 {
        fill: #da291c;
      }

      .st3 {
        fill: #e50012;
      }

      .st4 {
        clip-path: url(#clippath);
      }
    </style>
    <clipPath id="clippath">
      <rect class="st0" x="33.9" y="26.2" width="179.6" height="12.7"/>
    </clipPath>
  </defs>
  <g class="st4">
    <g>
      <path class="st3" d="M51,26.2c-4.3,0-6.9,2.8-6.9,6.3s2.6,6.3,6.9,6.3,6.9-2.8,6.9-6.3-2.6-6.3-6.9-6.3ZM51,37.5c-2.1,0-3.6-2.2-3.6-5s1.6-5,3.6-5,3.7,2.2,3.7,5-1.6,5-3.7,5Z"/>
      <path class="st3" d="M58.5,28.1h4.6v10.3h3.4v-10.3h3.8v-1.4h-11.8v1.4Z"/>
      <path class="st3" d="M71.6,28.1h3.8v10.3h3.4v-10.3h4.6v-1.4h-11.8v1.4Z"/>
      <path class="st3" d="M37.2,36.3v-9.6h-3.3v10.3c0,.8.6,1.4,1.3,1.4h8.4v-1.4h-5.8c-.3,0-.7-.3-.7-.7"/>
      <path class="st3" d="M85.3,28.1v8.9c0,.8.6,1.4,1.3,1.4h9v-1.4h-6.3c-.3,0-.7-.3-.7-.7v-3.4h6.9v-1.4h-6.9v-2.7c0-.4.3-.7.7-.7h6.3v-1.4h-9c-.7,0-1.3.6-1.3,1.4Z"/>
      <path class="st3" d="M106.1,27h-3.4v11.1h3.4v-11.1Z"/>
      <path class="st3" d="M134.5,28.4v-1.4h-10.1c-.4,0-.7.3-.7.7v10.4h3.4v-5.3h7.2v-1.4h-7.2v-3.1h7.4Z"/>
      <path class="st3" d="M117.6,27v7.6l-5.3-7.3c-.1-.2-.3-.3-.5-.3h-2.4c-.4,0-.7.3-.7.7v10.4h3.4v-7.9l5.3,7.6c.1.2.3.3.6.3h2.4c.4,0,.7-.3.7-.7v-10.4h-3.4Z"/>
      <path class="st3" d="M146.8,32.9c2.2,0,2-2.8,2-2.8,0-3-3.4-3.1-3.4-3.1h-8.6c-.3,0-.6.3-.6.7v10.5h3.4v-4.1c0-.2.1-.3.3-.3h3.4c1.3.5,1.8,4.2,1.8,4.2h3.7c.3-3.4-2-5.1-2-5.1h0ZM143.6,32.1h-3.5c-.3,0-.5-.2-.5-.5v-2.6c0-.3.2-.5.5-.5h3.4s1.9-.1,1.9,2.1c0,0-.2,1.6-1.8,1.6Z"/>
      <path class="st3" d="M172.2,36.8c-2.1,0-3.7-2-3.7-4.5s1.7-4.5,3.7-4.5,2.9,1.2,3.5,2.9h3.3c-.9-2.6-3.6-4.4-6.8-4.4s-7.1,2.8-7.1,6.3,3.2,6.3,7.1,6.3,5.8-1.8,6.7-4.3h-3.5c-.6,1.4-1.9,2.4-3.3,2.4h0Z"/>
      <path class="st3" d="M158.1,27c-.7-.7-1.1-.6-1.1-.6-.8,0-1.2.7-1.2.7l-6.1,10.9h2.4s1.2-2.2,1.2-2.2h6.2s1.5,2.2,1.5,2.2h3.3s-6.2-11.1-6.2-11.1h0ZM154.1,34.4l2.1-3.9s.1-.2.4-.2c0,0,.1,0,.4.2l2.2,3.9h-5.1s0,0,0,0Z"/>
      <path class="st3" d="M195.8,36.3v-9.6h-3.3v10.3c0,.8.6,1.4,1.3,1.4h8.4v-1.4h-5.8c-.4,0-.7-.3-.7-.7"/>
      <path class="st3" d="M207.1,36.3v-9.6h-3.3v10.3c0,.8.6,1.4,1.3,1.4h8.4v-1.4h-5.8c-.3,0-.7-.3-.7-.7"/>
      <path class="st3" d="M180.3,28.1v8.9c0,.8.6,1.4,1.3,1.4h9v-1.4h-6.3c-.3,0-.7-.3-.7-.7v-3.4h6.9v-1.4h-6.9v-2.7c0-.4.3-.7.7-.7h6.3v-1.4h-9c-.7,0-1.3.6-1.3,1.4Z"/>
    </g>
  </g>
  <path class="st2" d="M22,42.1c-2.5,2.5-6.6,2.5-9.1,0l-4.6-4.6c-2.5-2.5-2.5-6.6,0-9.1l4.6-4.6c2.5-2.5,6.6-2.5,9.1,0l4.6,4.6c2.5,2.5,2.5,6.6,0,9.1l-4.6,4.6Z"/>
  <path class="st1" d="M14.7,39.8c-.4,0-.7-.3-.7-.7,0-.2,0-.4.2-.5.1-.1.3-.2.5-.2.4,0,.7.3.7.7,0,.4-.3.7-.7.7h0Z"/>
  <path class="st1" d="M17.2,27.2c-.4,0-.7.1-.9.4-.5.5-.8,1.6-.8,3,0,1.8.4,5.2,1.8,7,.2.3.5.5.7.7.2.2.5.3.9.3s.2,0,.4,0c.8-.2,1.8-1.1,2.5-2.2.1-.2.3-.3.5-.3s.2,0,.3,0c.1,0,.2.2.3.4,0,.2,0,.3,0,.5-.9,1.5-2.2,2.5-3.3,2.8,0,0,0,0,0,0-.2,0-.4,0-.6,0-.7,0-1.2-.3-1.6-.5-.4-.2-.7-.6-1-1-1.9-2.5-2.1-7.2-2.1-7.7,0-1.2.2-2.9,1.1-3.9.5-.5,1.1-.7,1.8-.7h.1c.7,0,1.3.2,1.8.7,1,1,1.2,2.7,1.1,3.9,0,1.3-.3,3.8-1.6,6.1-.1.2-.3.3-.5.3s-.2,0-.3,0c-.3-.2-.4-.5-.2-.8.9-1.6,1.4-3.3,1.4-5.5,0-1.4-.2-2.5-.8-3-.2-.2-.5-.4-.9-.4h-.1Z"/>
</svg>