<?xml version="1.0" encoding="UTF-8"?>
<svg id="_레이어_1" data-name="레이어 1" xmlns="http://www.w3.org/2000/svg" viewBox="0 0 1026 321">
  <defs>
    <style>
      .cls-1 {
        fill: #756965;
      }

      .cls-2 {
        fill: #766b66;
      }

      .cls-3 {
        fill: #776c68;
      }

      .cls-4 {
        fill: #a72c2c;
      }

      .cls-5 {
        fill: #786d69;
      }

      .cls-6 {
        fill: #776d68;
      }

      .cls-7 {
        fill: #766c67;
      }

      .cls-8 {
        fill: #776b67;
      }

      .cls-9 {
        fill: #766b67;
      }

      .cls-10 {
        fill: #a82e2f;
      }
    </style>
  </defs>
  <path class="cls-4" d="M89,100c3.12-1.57,5.51,0,8.46.05,25.64.4,51.33-.45,76.98.02,8.36,1.7,10.05,8.96,10.61,16.39,1.24,16.61,1.8,50.95-.04,67.04-.69,6.08-7.41,14.36-13.95,11.97l-35.09-25.93c-1.36-.73-2.93-.81-4.41-.55-1.18.21-13.37,11.45-15.56,13.5-3.76,3.51-21.89,23.15-24.64,23.4-1.04.09-2.35-.93-2.35-1.38v-104.5Z"/>
  <path class="cls-10" d="M185,203v21.5c0,4.59-6.38,11.72-11.48,11.52l-134.07.03c-6.78-.07-11.82-6.17-12.45-12.55l.23-112.77c2.27-8.65,8.8-11.29,17.23-11.77,1.95-.11,10.55-.49,10.55,1.54v91c0,2.18,3.85,5.97,5.53,7.47,3.42,3.07,21.45,16.58,24.89,18.1,3.68,1.62,6.04,1.39,9.54-.62,9.37-5.4,17.24-18.8,26.6-24.48l4.79,1.19c8.12,3.76,28.06,23.42,35.2,24.79,9.3,1.78,15.54-11.78,23.45-14.95Z"/>
  <path class="cls-9" d="M742,218c-4.59.95-18.87,3.56-18.83-3.44.07-13.8,2.59-33.24-.6-46.62-3.39-14.2-25.59-8.39-26.48-5.31-.39,1.35,1.82,10.1,1.96,12.83.29,5.58.69,38.86-.56,41.53-.22.47-1.81,2.02-1.98,2.02h-15c-1.1,0-1.43-2.44-1.55-3.45-1.59-13.57,1.39-30.25.09-44.09-1.47-15.62-14.04-13.76-26.04-11.46v58c-3.93.94-17.42,2.97-18.8-1.7l-.22-61.82c.09-4.99,3.57-6.03,7.58-7.42,8.42-2.92,21-3.98,29.83-2.95,4.25.49,13.12,5,15.02,4.91,3.05-.16,10.37-4.34,15.2-4.91,14.12-1.66,31.04,1.07,37.8,14.99.45.93,2.59,6.06,2.59,6.41v52.5Z"/>
  <path class="cls-8" d="M472.36,161.64c-7.75-8.18-8.99-22.92-2.35-32.14,11.36-15.78,41.65-16.17,58.24-10.25,2.95,1.05,15.7,6.57,15.76,9.2.05,1.97-6.69,10.77-8.73,11.37-3.55,1.03-9.75-3.48-13.75-4.86-8.95-3.09-24.22-5.46-32.04,1.02-4.98,4.13-5.08,12.96.58,16.44,16.26,10,53.8,5.85,56.93,33.07,3.64,31.69-33.15,38.99-57.21,33.21-4.82-1.16-24.87-8.96-24.83-14.21,0-1.02,7.62-11.04,8.74-11.37,2.96-.87,9.55,4.27,12.94,5.73,11.36,4.88,25,8.75,35.85.14,6.12-4.85,6.32-14.28-.79-18.19-14.7-8.09-36.25-5.33-49.34-19.15Z"/>
  <path class="cls-2" d="M421.99,118.01l-39.79,49.65c-.15,1.59.96,2.69,1.8,3.84,10.18,14.09,27.04,28.39,36.43,42.57.87,1.32,2.53,3.26.6,4.46-2.6,1.62-23.07.04-26.4-1.66-1.59-.81-4.68-4.33-6.14-5.86-3.15-3.3-19.19-24.61-21.13-24.94-3.36-.58-22.34,28.56-28.61,31.17-6.89,2.87-19.27,1.26-26.75.75-.21-1.81,1.02-3.16,2.02-4.48,23.85-31.41,53.39-60.93,77.96-92.04,8.81-7.84,19.52-2.26,30.02-3.47Z"/>
  <path class="cls-1" d="M317,197c.1,1.41.11,2.66-.52,3.98s-11.75,13.97-13.15,14.85c-1.48.92-3.15,1.84-4.89,2.11-18.88-1.91-43.72,2.81-61.87,0-3.6-.56-10.56-6.03-10.56-9.44v-89c0-.11,1.39-1.5,1.5-1.5h24c.11,0,1.5,1.39,1.5,1.5v75c0,.23,3.12,2.5,3.5,2.5h60.5Z"/>
  <path class="cls-9" d="M575,189c-2.02,15.45,10.65,18.84,23.38,15.88,3.92-.91,12.69-6.16,15.08-5.92,1.65.17,8.24,8.02,8.39,9.71.28,2.95-13.18,8.79-16.06,9.63-16.77,4.85-46.8,1.51-49.71-19.89-.88-6.45-.88-25.38,0-31.83,3.9-28.5,54.91-30.69,64.8-5.97.47,1.19,2.12,6.13,2.12,6.88v20.5c-.98-.32-2.17,1-2.5,1h-45.5ZM575,176h30c3.42-23.8-34.37-24.86-30,0Z"/>
  <path class="cls-7" d="M880.78,144.28c38.62-4.65,47.68,15.28,44.21,50.21-3.43,34.6-63.06,33.08-69.29,5.3-1.82-8.11-1.78-30.76,1.11-38.48,3.63-9.67,14-15.84,23.96-17.04ZM886.77,158.25c-5.08.62-10.91,3.37-12.3,8.72-1.16,4.5-1.07,28.55.76,32.3,4.27,8.77,25,8.7,29.54-1,2.09-4.47,2.05-28.89-.35-33.19-3.27-5.85-11.45-7.58-17.65-6.83Z"/>
  <path class="cls-7" d="M1005,218c-.53.84-18.07,2.98-18.81-1.7l-.17-45.82c-2.4-14.98-18.82-12.08-30.02-10.48v58c-4.12.61-17.35,3.2-18.8-1.7.68-8.49-2.06-63.99,1.04-67.06,4.67-4.65,32.31-5.84,39.25-5.22,10.73.96,27.52,10.28,27.52,22.48v51.5Z"/>
  <path class="cls-3" d="M819.83,143.25c5.11-.15,28.01,2.79,28.15,9.23.04,1.8-5.97,9.96-7.7,10.39-1.18.29-12.14-4.19-16.26-4.4-7.13-.36-16.16,2.2-17.8,10.26-1.08,5.32-.73,25.31,1.56,29.98,3.25,6.62,12.25,7.05,18.71,6.29,4.51-.53,12.95-5.7,15.79-4.88,1.08.31,7.34,8.54,7.56,9.62,1.02,5.05-15.28,9.69-19.46,10.15-37.9,4.2-46.5-15.25-43.38-49.38,1.67-18.3,15.37-26.76,32.82-27.27Z"/>
  <path class="cls-6" d="M775,146v72c-6.12,1.56-12.9,1.56-19,0v-72c6.12-1.56,12.9-1.56,19,0Z"/>
  <path class="cls-9" d="M352.42,133.58c1.56,1.88,9.6,10.58,9.59,11.9l-11.92,15.88-2.43.51-35.65-43.87c7.87-.68,18.5-2.45,26.01.48,4.43,1.73,11.13,11.15,14.4,15.1Z"/>
  <path class="cls-5" d="M760.72,118.21c11.12-2.47,17.76,2.27,15.07,14.08-1.62,7.13-11.9,8.05-17.16,4.58-5.54-3.66-5.15-17.05,2.08-18.65Z"/>
</svg>