<?xml version="1.0" encoding="UTF-8"?>
<svg id="_레이어_1" data-name="레이어_1" xmlns="http://www.w3.org/2000/svg" xmlns:xlink="http://www.w3.org/1999/xlink" version="1.1" viewBox="0 0 196 66">
  <!-- Generator: Adobe Illustrator 29.7.1, SVG Export Plug-In . SVG Version: 2.1.1 Build 8)  -->
  <defs>
    <style>
      .st0 {
        fill: none;
      }

      .st1 {
        clip-path: url(#clippath);
      }

      .st2 {
        fill: #0054a7;
      }
    </style>
    <clipPath id="clippath">
      <rect class="st0" x="14" y="20" width="168" height="26.2"/>
    </clipPath>
  </defs>
  <g class="st1">
    <g>
      <path class="st2" d="M14.9,28.7c1.8,0,3.5,0,5.3,0,.4,0,.6.1.8.5,2.2,3.6,4.3,7.3,6.5,10.9l.3.4.7-1.1c2-3.4,4.1-6.9,6.1-10.3.2-.3.4-.4.7-.4,1.6,0,3.3,0,4.9,0h.4v16.8s-25.7,0-25.7,0v-16.8Z"/>
      <path class="st2" d="M14.9,20.7h.5s25.2,0,25.2,0v6h-.4c-2.1,0-4.1,0-6.2,0-.3,0-.4,0-.6.3l-5.5,9.2-.2.3-.2-.3c-1.8-3-3.6-6.1-5.5-9.1,0-.1-.3-.3-.4-.3h-6.8v-6ZM131.7,24.8v20.6h-4.9v-24.3h8.4c.3,0,.4,0,.5.3l5.1,17.1c0,.1,0,.2.1.4,0-.2.1-.3.2-.4l4.9-15,.7-2.2c0-.2.1-.3.3-.3h8s0,0,.1,0v24.3h-4.9v-20.7h0s-.2.4-.2.4l-6.1,18.1c-.2.6-.4,1.3-.6,1.9,0,.2-.2.3-.4.3h-3.8c-.2,0-.3,0-.4-.3l-4.4-13.5-2.1-6.4c0-.1-.1-.3-.2-.4h-.1ZM101.1,21.1h.4c2.4,0,4.8,0,7.2,0,.3,0,.4.1.5.3l9.2,18.2c0,.2.2.3.3.4v-18.9h5v24.3h-.4s-7,0-7,0c-.3,0-.4,0-.5-.3l-9.6-19.4c0-.1-.1-.2-.3-.3v20h-5c0-8.1,0-16.2,0-24.3ZM99.4,45.4h-.4c-1.6,0-3.1,0-4.6,0-.3,0-.4-.1-.5-.4l-1.7-4.5c0-.2-.2-.3-.4-.3h-9.4c-.3,0-.4,0-.5.3-.5,1.5-1.1,3-1.6,4.5,0,.3-.2.4-.5.4-1.4,0-2.9,0-4.3,0h-.4l.9-2.4,8.1-21.6c.1-.3.2-.4.5-.4,1.9,0,3.7,0,5.5,0,.3,0,.5,0,.6.4l6.1,16.8,2.4,6.7c0,.1,0,.3.1.4ZM90.8,36.3l-3.5-10.4h-.1l-3.7,10.4h7.3ZM181,45.4h-.3c-1.6,0-3.1,0-4.7,0-.3,0-.4,0-.5-.3-.5-1.5-1.1-3-1.6-4.5,0-.3-.2-.4-.5-.4-3.1,0-6.2,0-9.3,0-.3,0-.4,0-.5.3l-1.7,4.5c0,.3-.2.4-.5.4-1.6,0-3.1,0-4.7,0l.6-1.5,8.4-22.4c.1-.3.2-.4.6-.4,1.9,0,3.7,0,5.6,0,.2,0,.4,0,.4.3,2.9,8,5.8,16,8.7,24ZM172.4,36.2l-3.5-10.4h-.1s-3.7,10.4-3.7,10.4h7.3ZM58.5,45.4h-5.4v-20.3h-7.5v-4h20.3v4h-7.4v20.3ZM68.1,21.1h5.4v24.3h-5.4v-24.3Z"/>
    </g>
  </g>
</svg>